# xmcd
#
# Track frame offsets:
#	150
#	20550
#	39152
#	57902
#	74777
#	91202
#	108602
#	124354
#
# Disc length: 1880 seconds
#
# Revision: 1
# Processed by: cddbd v1.5.1PL0 Copyright (c) Steve Scherf et al.
# Submitted via: audiograbber 1.83.01
#
DISCID=70075608
DTITLE=Sybersound Guy Country - SYB1805
DYEAR=2002
DGENRE=KARAOKE
TTITLE0=Lonestar - Amazed
TTITLE1=Garth Brooks - Two Pina Coladas
TTITLE2=Alan Jackson - Where I Come From
TTITLE3=Toby Keith - How Do You Like Me Now
TTITLE4=Brooks And Dunn - Ain't Nothing 'Bout You
TTITLE5=Steve Holy - Good Morning Beautiful
TTITLE6=Tim McGraw - I Like It I Love It
TTITLE7=Chad Brock - Yes
EXTD=
EXTT0=
EXTT1=
EXTT2=
EXTT3=
EXTT4=
EXTT5=
EXTT6=
EXTT7=
PLAYORDER=
